<?xml version="1.0" encoding="UTF-8"?>
<svg id="Layer_1" xmlns="http://www.w3.org/2000/svg" version="1.1" viewBox="0 0 216 216">
  <!-- Generator: Adobe Illustrator 29.1.0, SVG Export Plug-In . SVG Version: 2.1.0 Build 142)  -->
  <defs>
    <style>
      .st0 {
        fill: #231f20;
      }
    </style>
  </defs>
  <path class="st0" d="M88.14,100.18c0,8.95,9.65,10.26,10.66,10.26h.02v10.42h-.03c-2.6-.46-7.15-1.76-9.58-2.48l-1.07,4.34c2.26.69,7.97,2.61,10.68,3.05.02.31.03.65.07.94.26,2.5,1.45,4.7,3.18,6.22v20.54h-23.18v-35.03l-34.15,35.03H14.39l45.96-45.49L14.39,62.51h30.36l34.15,35.03v-35.03h23.18v20.54c-.36.31-.69.65-1,1.02-1.36,1.67-2.2,3.8-2.25,6.16-.09.02-10.68,1.79-10.68,9.95Z"/>
  <path class="st0" d="M98.82,95.12v10.44h-.02c-2.88,0-5.22-2.34-5.22-5.23s2.34-5.21,5.22-5.21h.02Z"/>
  <path class="st0" d="M122.42,115.67c0,1.44-.58,2.74-1.54,3.68-.95.96-2.25,1.55-3.69,1.55v-10.46c2.88,0,5.23,2.34,5.23,5.23Z"/>
  <path class="st0" d="M155.66,108l45.96,45.49h-30.36l-34.15-35.03v35.03h-23.18v-20.54c1.85-1.63,3.09-4.03,3.24-6.73v-.1c0-.11.02-.24.02-.35.08,0,10.68-1.79,10.68-9.94,0-4.47-2.42-7.05-4.95-8.49-2.56-1.45-5.21-1.78-5.73-1.78v-10.42s.02.02.03.02c2.6.44,7.14,1.75,9.56,2.47l1.09-4.35c-2.25-.67-7.98-2.6-10.68-3.03,0,0,0,.02-.02.02,0-.33,0-.65-.04-.96-.27-2.48-1.46-4.68-3.2-6.21v-20.56h23.18v35.03l34.15-35.03h30.36l-45.96,45.48Z"/>
  <path class="st0" d="M113.92,110.45v15.16c0,3.48-2.59,6.28-5.75,6.28h-.35c-2.95,0-5.36-2.42-5.69-5.52-.03-.24-.04-.5-.04-.76v-15.16h11.83Z"/>
  <path class="st0" d="M113.92,90.4v15.16h-11.83v-15.16c0-3.46,2.56-6.28,5.73-6.28h.35c2.78,0,5.1,2.16,5.63,5.02,0,.07.02.15.02.24.08.33.1.68.1,1.01Z"/>
</svg>