<?xml version="1.0" encoding="UTF-8"?>
<svg id="Layer_1" xmlns="http://www.w3.org/2000/svg" version="1.1" viewBox="0 0 216 216">
  <!-- Generator: Adobe Illustrator 29.1.0, SVG Export Plug-In . SVG Version: 2.1.0 Build 142)  -->
  <defs>
    <style>
      .st0 {
        fill: #231f20;
      }
    </style>
  </defs>
  <g id="stundenglass">
    <path class="st0" d="M65.88,122.69c-.39.12-.85.21-1.39.28-.54.07-1.04.1-1.51.1-1.18,0-2.15-.19-2.9-.57-.75-.38-1.28-.94-1.59-1.65-.22-.51-.33-1.21-.33-2.1v-7.31s-2.64,0-2.64,0v-2.84h2.64s0-3.95,0-3.95h3.45v3.95s4.08,0,4.08,0v2.84h-4.08s0,6.86,0,6.86c0,.54.08.95.25,1.21.29.45.87.67,1.73.67.4,0,.79-.03,1.19-.1s.76-.14,1.11-.24v2.85ZM72.57,123.07c-1.42,0-2.59-.24-3.52-.72s-1.64-1.13-2.11-1.94c-.25-.44-.44-.92-.56-1.44-.12-.52-.18-1.11-.18-1.75v-8.62h3.45v8.26c0,.48.03.89.1,1.23.07.34.17.64.31.9.23.43.56.74.99.95s.94.31,1.53.31c.62,0,1.15-.12,1.59-.35.44-.23.77-.59,1-1.06.22-.46.33-1.09.33-1.91v-8.33h3.45v8.62c0,1.15-.2,2.11-.6,2.9-.22.45-.51.85-.87,1.22-.35.36-.77.67-1.25.93-.48.26-1.02.46-1.63.6-.61.14-1.28.21-2.03.21ZM67.97,102.15h3.17v3.22h-3.17v-3.22ZM73.94,102.15h3.17v3.22h-3.17v-3.22ZM83.53,110.56h.06c.2-.29.46-.58.77-.86.31-.28.67-.53,1.06-.74s.84-.39,1.32-.52c.48-.13.99-.2,1.54-.2.51,0,1.01.06,1.49.18.48.12.92.3,1.32.55.4.25.75.57,1.06.96.31.39.55.86.72,1.4.1.3.16.63.2.98s.05.76.05,1.23v9.16h-3.45v-8.62c0-.38-.01-.7-.04-.97s-.08-.51-.16-.71c-.17-.45-.44-.77-.79-.96-.36-.19-.78-.29-1.29-.29-.67,0-1.31.16-1.93.47s-1.16.77-1.64,1.38v9.71h-3.45v-14.11h2.85s.32,1.96.32,1.96ZM93.93,115.94c0-1.23.17-2.33.51-3.3.34-.97.8-1.78,1.39-2.43.59-.65,1.26-1.14,2.02-1.47.76-.32,1.54-.49,2.36-.49.38,0,.74.04,1.08.1.34.07.66.16.96.28.3.12.58.25.84.39.26.15.5.3.73.45h.03c0-.19-.02-.47-.02-.82,0-.35,0-.74,0-1.16v-5.87h3.45v16.89c0,.93.01,1.73.03,2.4.02.67.04,1.27.06,1.79h-3.12s-.14-1.5-.14-1.5h-.06c-.2.24-.45.48-.74.71s-.6.43-.95.6c-.34.17-.72.3-1.14.4-.41.1-.86.15-1.35.15-.77,0-1.5-.14-2.21-.41-.7-.27-1.33-.69-1.89-1.26-.56-.57-1-1.31-1.34-2.23-.33-.92-.5-2-.5-3.24ZM100.73,120.32c.34,0,.66-.04.97-.13.31-.09.59-.2.87-.35.27-.14.51-.31.72-.48.21-.18.39-.34.53-.51v-6.7c-.41-.33-.86-.6-1.37-.82-.51-.22-1.04-.33-1.6-.33-.36,0-.74.07-1.13.22-.39.14-.75.39-1.08.74-.33.35-.6.83-.82,1.46-.22.62-.33,1.41-.33,2.37,0,1.42.27,2.52.82,3.32.55.8,1.35,1.2,2.41,1.21ZM116.32,120.29c.67,0,1.37-.07,2.1-.2s1.47-.33,2.21-.58v2.75c-.45.19-1.13.38-2.05.55-.92.17-1.88.26-2.87.26s-1.95-.13-2.85-.39-1.68-.67-2.35-1.25c-.67-.57-1.2-1.32-1.59-2.23s-.59-2.02-.59-3.32c0-1.28.18-2.4.55-3.36.37-.96.86-1.76,1.49-2.39.62-.63,1.33-1.11,2.13-1.42.8-.31,1.63-.47,2.48-.47s1.72.14,2.47.41c.75.27,1.4.7,1.95,1.28.55.58.98,1.33,1.28,2.25.31.92.46,2,.46,3.26-.01.49-.02.9-.04,1.24h-9.25c.05.65.19,1.21.44,1.67.24.46.56.84.95,1.12.39.29.85.5,1.38.63.52.13,1.09.2,1.7.2ZM114.94,110.94c-.44,0-.83.08-1.16.24-.34.16-.63.38-.88.65-.25.28-.44.6-.59.97-.15.37-.24.76-.29,1.18h5.55c0-.42-.06-.81-.17-1.18-.11-.37-.28-.69-.49-.97-.22-.28-.49-.5-.82-.65-.33-.16-.71-.24-1.14-.24ZM125.28,110.56h.06c.2-.29.46-.58.77-.86.31-.28.67-.53,1.06-.74s.84-.39,1.32-.52c.48-.13.99-.2,1.54-.2.51,0,1.01.06,1.49.18.48.12.92.3,1.32.55.4.25.75.57,1.06.96.31.39.55.86.72,1.4.1.3.16.63.2.98s.05.76.05,1.23v9.16h-3.45v-8.62c0-.38-.01-.7-.04-.97s-.08-.51-.16-.71c-.17-.45-.44-.77-.79-.96-.36-.19-.78-.29-1.29-.29-.67,0-1.31.16-1.93.47s-1.16.77-1.64,1.38v9.71h-3.45v-14.11h2.85s.32,1.96.32,1.96ZM145.57,123.07c0-.19,0-.43,0-.72,0-.29.02-.53.04-.72h-.03c-.21.17-.46.35-.74.52-.28.17-.58.33-.91.47-.33.14-.69.25-1.09.33-.4.08-.81.12-1.22.12-.75,0-1.48-.13-2.19-.4-.71-.27-1.35-.69-1.9-1.27-.55-.58-1-1.32-1.34-2.22-.34-.9-.51-1.99-.51-3.26s.17-2.39.52-3.34c.34-.96.8-1.75,1.38-2.4.57-.64,1.23-1.12,1.97-1.45.74-.32,1.51-.49,2.29-.49.86,0,1.63.18,2.3.55s1.22.83,1.65,1.39h.06s.14-1.59.14-1.59h3.03v14.37c0,.83-.07,1.53-.2,2.13s-.33,1.12-.6,1.57c-.31.53-.71,1-1.19,1.4-.48.4-1.03.73-1.65.99-.62.26-1.29.46-2.03.59s-1.52.2-2.34.2c-.47,0-.92-.02-1.37-.05-.45-.04-.87-.08-1.26-.15s-.75-.14-1.08-.22c-.33-.08-.6-.17-.82-.26v-2.81c.64.21,1.31.38,2.02.49.7.11,1.44.17,2.22.17,1.54,0,2.74-.3,3.58-.9.84-.6,1.27-1.5,1.27-2.72v-.33ZM142.49,120.32c.35,0,.68-.04.99-.13.31-.09.6-.2.86-.34.26-.14.5-.29.71-.45.21-.17.39-.33.53-.5v-6.31c-.37-.44-.82-.8-1.37-1.09s-1.12-.44-1.73-.45c-.21,0-.44.03-.68.08-.24.05-.48.15-.72.28s-.47.32-.69.55c-.22.23-.41.52-.58.87s-.3.77-.4,1.25c-.1.49-.15,1.05-.15,1.69,0,.71.07,1.34.2,1.9s.34,1.03.61,1.43c.27.39.61.69,1.01.9s.87.31,1.4.31ZM150.72,122.71v-21.08h3.45v21.08h-3.45ZM164.17,121.21h-.06c-.19.2-.43.41-.7.63-.27.21-.58.42-.93.61-.35.19-.74.34-1.16.46-.43.12-.89.17-1.38.17-.67,0-1.3-.1-1.88-.31-.58-.21-1.08-.51-1.5-.9-.42-.39-.74-.87-.98-1.43s-.36-1.18-.36-1.87c0-.76.14-1.44.42-2.04.28-.6.66-1.11,1.16-1.53.49-.42,1.09-.74,1.78-.95.69-.22,1.45-.33,2.29-.33.61,0,1.18.04,1.69.12s.97.17,1.35.28v-.57c0-.33-.06-.65-.17-.95-.11-.31-.29-.58-.54-.82-.25-.24-.57-.43-.97-.57-.4-.14-.88-.21-1.46-.21-.7,0-1.4.08-2.1.23s-1.46.39-2.27.7v-2.69c.71-.31,1.46-.55,2.26-.71.8-.17,1.63-.25,2.5-.26,1.03,0,1.93.13,2.7.38.77.25,1.42.6,1.94,1.04.52.44.91.96,1.16,1.57s.39,1.26.39,1.97v5.31c0,.93.01,1.73.03,2.4.02.67.04,1.27.06,1.79h-3.12s-.14-1.5-.14-1.5ZM163.89,116.7c-.33-.08-.71-.15-1.14-.21s-.86-.1-1.3-.1c-.84,0-1.51.17-2,.5-.49.33-.74.85-.74,1.54,0,.32.06.6.17.84.11.24.26.43.45.59.19.16.41.27.66.35.25.08.52.12.8.12.35,0,.68-.05.99-.14.31-.09.6-.21.86-.35.26-.14.5-.3.71-.47.21-.18.39-.34.53-.51v-2.15ZM175.22,118.62c0-.3-.08-.55-.25-.74-.17-.19-.4-.36-.68-.49-.28-.13-.6-.25-.97-.34-.36-.1-.75-.19-1.14-.29-.51-.13-.99-.29-1.46-.47-.47-.18-.88-.41-1.23-.71-.36-.29-.64-.66-.84-1.1-.21-.44-.31-.98-.31-1.62,0-.79.14-1.47.42-2.05.28-.58.66-1.06,1.14-1.43.48-.38,1.04-.66,1.67-.84s1.31-.28,2.02-.28c.86,0,1.68.07,2.43.21s1.44.32,2.05.55v2.81c-.32-.11-.66-.21-1.01-.3s-.71-.17-1.08-.24c-.36-.07-.73-.12-1.08-.17-.36-.04-.7-.07-1.02-.07-.41,0-.75.04-1.03.12s-.51.18-.68.31c-.18.13-.3.28-.38.45s-.12.35-.12.53c0,.32.08.58.25.79.17.2.41.37.71.49.3.13.62.23.95.31.33.08.65.16.96.24.49.12.97.26,1.46.42s.92.39,1.31.69c.39.3.71.68.95,1.15s.37,1.07.37,1.8c0,.8-.15,1.49-.45,2.08s-.72,1.08-1.26,1.48c-.54.39-1.18.68-1.94.87-.75.19-1.58.28-2.48.28s-1.7-.07-2.41-.21c-.71-.14-1.3-.32-1.77-.53v-2.78c.76.28,1.46.47,2.1.58.64.1,1.24.15,1.79.15.43,0,.82-.03,1.19-.09.37-.06.69-.16.95-.3s.48-.31.63-.52c.15-.21.23-.46.23-.75ZM185.63,118.62c0-.3-.08-.55-.25-.74-.17-.19-.4-.36-.68-.49-.28-.13-.6-.25-.97-.34-.36-.1-.75-.19-1.14-.29-.51-.13-.99-.29-1.46-.47-.47-.18-.88-.41-1.23-.71-.36-.29-.64-.66-.84-1.1-.21-.44-.31-.98-.31-1.62,0-.79.14-1.47.42-2.05.28-.58.66-1.06,1.14-1.43.48-.38,1.04-.66,1.67-.84s1.31-.28,2.02-.28c.86,0,1.68.07,2.43.21s1.44.32,2.05.55v2.81c-.32-.11-.66-.21-1.01-.3s-.71-.17-1.08-.24c-.36-.07-.73-.12-1.08-.17-.36-.04-.7-.07-1.02-.07-.41,0-.75.04-1.03.12s-.51.18-.68.31c-.18.13-.3.28-.38.45s-.12.35-.12.53c0,.32.08.58.25.79.17.2.41.37.71.49.3.13.62.23.95.31.33.08.65.16.96.24.49.12.97.26,1.46.42s.92.39,1.31.69c.39.3.71.68.95,1.15s.37,1.07.37,1.8c0,.8-.15,1.49-.45,2.08s-.72,1.08-1.26,1.48c-.54.39-1.18.68-1.94.87-.75.19-1.58.28-2.48.28s-1.7-.07-2.41-.21c-.71-.14-1.3-.32-1.77-.53v-2.78c.76.28,1.46.47,2.1.58.64.1,1.24.15,1.79.15.43,0,.82-.03,1.19-.09.37-.06.69-.16.95-.3s.48-.31.63-.52c.15-.21.23-.46.23-.75ZM38.9,102.07h0s0-.02,0,0ZM55.53,116.71c0,4.66-6.06,5.68-6.11,5.69h0s0,0,0,0c0,0,0,0,0,0,0,0,0,0,0,0h0c0,.06,0,.13,0,.19,0,0,0,.02,0,.03v.03c-.15,2.57-2,4.66-4.36,5.05-.08,0-.17.02-.26.03-.16.02-.33.03-.5.03h-.22c-2.64,0-4.82-2.11-5.12-4.82-.02-.18-.03-.37-.03-.55,0,0,0,.01,0,.01-1.55-.24-4.82-1.35-6.11-1.73l.62-2.49c1.39.41,3.99,1.16,5.47,1.42,0,0,.01,0,.02,0v-5.96s0,0,0,0c-.58,0-6.11-.76-6.11-5.88,0-4.66,6.06-5.68,6.11-5.69,0,0,0,0,0,0h0c.04-2.69,1.93-4.92,4.38-5.31.08-.01.16-.02.24-.03.16-.02.33-.03.49-.03h.23c2.64,0,4.83,2.11,5.12,4.82.02.18.03.37.03.55,0,0,0-.01,0-.01,1.55.24,4.82,1.35,6.11,1.73l-.62,2.49c-1.39-.41-3.99-1.16-5.47-1.42,0,0-.01,0-.02,0v5.96s0,0,0,0c.58,0,6.11.76,6.11,5.88ZM38.91,110.84v-5.97s0,0,0,0c-1.65,0-2.99,1.34-2.99,2.99,0,1.65,1.34,2.99,2.99,2.99h0ZM47.55,113.64h-6.77s0,8.67,0,8.67c0,.14,0,.29.03.43.19,1.78,1.57,3.16,3.26,3.16h.2c1.81,0,3.29-1.61,3.29-3.59v-8.67ZM47.55,102.17c0-.2-.01-.39-.05-.58,0-.05,0-.1-.02-.14-.31-1.64-1.64-2.86-3.22-2.86h-.2c-1.81,0-3.29,1.61-3.29,3.59v8.67s6.77,0,6.77,0v-8.67ZM52.41,116.63c0-1.65-1.34-2.99-2.99-2.99h0s0,5.97,0,5.97h0c1.65,0,2.99-1.34,2.99-2.99ZM49.42,122.4h0s0,.05,0,0Z"/>
    <path class="st0" d="M187.88,124.86h-.19s0,.6,0,.6h-.16v-1.27h.42c.22,0,.37.12.37.34,0,.18-.1.29-.26.32l.38.61h-.19s-.37-.6-.37-.6ZM187.69,124.34v.37s.27,0,.27,0c.13,0,.2-.06.2-.18s-.07-.18-.2-.18h-.27ZM187.9,123.81c.56,0,1.01.45,1.01,1.01s-.45,1.01-1.01,1.01-1.01-.45-1.01-1.01.45-1.01,1.01-1.01M187.9,123.69c-.62,0-1.13.51-1.13,1.13s.51,1.13,1.13,1.13,1.13-.51,1.13-1.13-.51-1.13-1.13-1.13h0Z"/>
  </g>
</svg>