<?xml version="1.0" encoding="UTF-8"?>
<svg id="Layer_2" data-name="Layer 2" xmlns="http://www.w3.org/2000/svg" viewBox="0 0 570.49 277.17">
  <defs>
    <style>
      .cls-1 {
        fill: #a7d7b6;
      }
    </style>
  </defs>
  <g id="Layer_1-2" data-name="Layer 1">
    <g>
      <path class="cls-1" d="m267.19,214.59c-5.29-4.65-8.91-11.35-9.71-18.96-.12-.9-.17-1.92-.22-2.86-8.26-1.34-25.65-7.22-32.54-9.31l3.26-13.24c7.39,2.19,21.25,6.17,29.18,7.56h.1v-31.75h-.05c-3.08,0-32.49-4.01-32.49-31.27,0-24.86,32.27-30.25,32.54-30.3.17-7.19,2.71-13.68,6.87-18.76.94-1.12,1.97-2.15,3.07-3.11V0h-70.64v106.72L92.52,0H0l140.03,138.59L0,277.17h92.52l104.04-106.72v106.72h70.64v-62.59Z"/>
      <path class="cls-1" d="m241.31,115.21c0,8.78,7.12,15.92,15.9,15.92h.05v-31.8h-.05c-8.78,0-15.9,7.07-15.9,15.87Z"/>
      <path class="cls-1" d="m303.29,146.04h-36.05v46.18c0,.8.02,1.57.12,2.31,1.02,9.45,8.36,16.82,17.34,16.82h1.07c9.63,0,17.52-8.53,17.52-19.13v-46.18Z"/>
      <path class="cls-1" d="m267.24,84.96v46.18h36.05v-46.18c0-1.02-.05-2.07-.3-3.08,0-.3-.05-.55-.07-.75-1.59-8.73-8.68-15.3-17.14-15.3h-1.07c-9.65,0-17.47,8.58-17.47,19.13Z"/>
      <path class="cls-1" d="m303.3,277.17h70.64v-106.72l104.04,106.72h92.52l-140.03-138.59L570.49,0h-92.52l-104.04,106.72V0h-70.64v62.64c5.28,4.66,8.92,11.36,9.74,18.93.12.97.12,1.92.12,2.94.07,0,.07-.05.07-.05,8.24,1.29,25.68,7.19,32.54,9.23l-3.31,13.26c-7.36-2.19-21.22-6.17-29.13-7.51-.05,0-.05-.05-.1-.05v31.75c1.59,0,9.68,1.02,17.47,5.42,7.71,4.4,15.08,12.24,15.08,25.88,0,24.83-32.29,30.28-32.54,30.28,0,.35-.07.75-.07,1.07v.3c-.46,8.22-4.22,15.52-9.87,20.49v62.6Z"/>
      <path class="cls-1" d="m313.24,177.91c4.38,0,8.36-1.79,11.25-4.73,2.91-2.86,4.68-6.84,4.68-11.22,0-8.78-7.14-15.92-15.92-15.92v31.87Z"/>
    </g>
  </g>
</svg>