<?xml version="1.0" encoding="UTF-8"?>
<svg id="Layer_2" data-name="Layer 2" xmlns="http://www.w3.org/2000/svg" viewBox="0 0 1129 484.57">
  <defs>
    <style>
      .cls-1 {
        fill: #a7d7b6;
      }
    </style>
  </defs>
  <g id="Layer_1-2" data-name="Layer 1">
    <path class="cls-1" d="m1127.28,290.39c3.37-1.6,1.35-6.66-2.19-5.57l-.26-.08c-27.66,9.02-65.43,18.72-97.55,9.28-30.44-10.46-8.44-105.4,5.22-125.81,3.88-5.73,5.56-13.07,7.5-19.73.59-2.03-.25-5.23-1.68-6.75-7.84-8.43-15.27-17.54-24.37-24.54-4.97-3.8-13.41-6.07-19.39-5.15-60.04,8.77-109.53,76.57-138.62,145.45-3.21,7.59-24.79,3.63-29.86,6.32,28.17-16.11,82.8-150.51,93.68-197.98,4.31-18.72,6.66-19.39,6.92-38.28.26-17.63-32.8-31.03-48.57-23.27-9.27,4.55-68.72,56.83-104.31,238.46-8.09,16.95-34.74,33.9-37.27,15.6,1.69-13.83,3.38-27.4,7.51-40.31,8.68-27.15,16.94-54.56,28.92-80.44,4.46-9.69,1.6-13.07-2.36-18.04-4.55-5.65-10.29-8.77-18.55-4.05-25.46,14.59-36,39.72-47.64,64-6.16,12.9-12.65,40.39-21.08,51.52-9.02,11.98-24.87,36.51-30.18,26.81-10.79-11.81,61.89-198.99,71.42-226.91,3.96-11.72-1.69-18.72-8.26-25.04-5.99-5.73-12.9-5.65-21.84-2.69-16.87,5.56-25.63,14.42-34.07,27.65-6.49,10.12-2.7,20.74-6.75,32.04-5.31,14.84-71.34,167.29-73.28,201.78-6.66,1.77-14.08,10.29-22.35,12.74-8.68,2.53-10.54-3.63-8.68-12.74,2.44-12.4,4.55-24.79,7.76-37.1,7.59-28.84,14-39.21,23.19-67.63,3.04-9.44,1.18-15.51-3.63-21.41-4.97-6.07-29.26-18.98-33.05-20.75-14.67-6.91-93.85,9.87-147.05,165.1-32.55,14.08-26.81,1.35-27.66,1.09,8.52-24.45,54.3-127.57,60.46-143.77,1.85-4.89,2.7-11.13,1.18-15.68-2.11-6.24-6.5-11.38-15.1-10.45-14.76,1.69-37.69,19.56-42.58,33.3-2.28,6.41-39.04,39.55-49.41,48.66,3.29-11.46,54.97-107.43,80.86-160.38,18.64-38.11-3.12-36.68-9.87-34.99-21.16,5.14-40.39,9.78-55.06,39.46-5.4,10.88-108.1,205.4-120.16,228.93-17.45-27.66-37.69-58.44-54.9-85.84,49.84-24.28,106.84-74.7,133.48-112.06,2.28-3.2,15.69-26.14,7.08-28.33-8.6-2.19-28.33-7.67-50.93,23.52-6.92,9.53-54.13,62.99-108.77,80.78C157,118.12,227.16,14.41,208.78,3.95c-12.06-6.83-33.98.17-39.8,2.19-23.87,8.27-54.13,69.65-101.52,174.04-3.04,6.66-18.3,9.44-22.17,8.09-3.54-1.18-34.58,14.84-2.03,16.86,1.85.08,10.79-1.01,12.99.08-5.31,14.51-46.63,103.8-54.98,137.19-2.61,10.37-1.52,16.44,6.58,21.67,11.72,7.59,28.92,5.99,34.83-3.29,5.98-9.36,11.8-18.72,17.03-28.42,18.04-33.14,34.91-75.63,53.04-108.69.93-1.69,67.38,122.6,134.07,202.88,38.11,45.87,97.39,21.41,120.16,9.69,2.11-1.09,1.27-4.3-1.09-4.3-25.72.59-46.55-7.34-59.28-22.93-14-17.12-25.63-36.35-37.77-54.98-8.77-13.58-16.53-27.74-24.96-41.99,2.28-1.6,3.54-2.28,4.55-3.12,11.3-8.85,25.72-10.88,33.73-27.66,7.76-16.27,48.66-60.8,61.56-74.62-1.85,15.34-29.01,62.14-28.84,76.81.51,80.02,83.99,11.55,87.19,9.53,2.45,9.69,12.74,27.74,44.44,17.37,16.61-5.4,32.97-9.69,43.85-25.46.51-.76,1.6-1.02,2.87-1.77v4.3c-1.35,24.62,21.58,28.67,42.83,20.07,7.84-3.2,38.53-19.06,44.95-34.57-7.25,59.95,79.59,13.74,86.76,2.44,2.36-3.71,5.82-6.66,10.38-11.8-1.02,8.68-1.77,15.18-2.45,21.67-1.43,12.9,5.73,22.6,18.46,22.51,40.56-.33,72.77-36.17,73.69-35.41-14.08,42.41-46.37,160.04-46.88,196.64-.17,10.88,7.67,18.38,18.13,14.59,84.82-30.86,95.45-123.11,98.74-189.3.34-5.98.68-11.97,1.01-18.04,1.01,3.04,16.03-3.96,16.28-1.09,5.39,71.08,95.53,14.42,101.27,8.68.59-.59,1.68-.84,3.29-1.6,0,9.95-1.85,12.31.93,21.17,13.75,43.34,115.44,11.38,166.7-12.99m-229.52-232.98c11.64,5.57-62.06,161.82-66.36,165.02,4.81-29.85,53.21-171.34,66.36-165.02m-429.87,207.68c-.25-21,25.89-73.19,45.36-90.3,4.72,28.67-12.39,62.73-45.36,90.3m327,135.33c-23.69,36.6-.26-43.43,6.15-67.29,1.18.26,14.08-47.81,15.35-47.64,4.3,36.59-5.32,79.34-21.5,114.93m128.17-145.03c-.26-20.99,25.88-73.19,45.36-90.3,4.72,28.67-12.4,62.73-45.36,90.3M778.36,5.98c12.65-4.72,23.78-1.94,32.04,7.67.93,1.1.76,3.29.25,4.89-7.84,27.74-13.49,32.21-20.91,60.04-4.31,16.02-8.69,18.8-26.14,14.92l.08-.08c-29.26-9.28-2.44-81.03,14.67-87.44m-102.01,406.81c-14.68,0-23.66-6.35-23.66-17.3v-.95h11.61v.66c0,5.84,4.82,8.91,12.26,8.91,5.55,0,9.49-1.46,10.95-4.02.51-.95.8-1.97.8-3.14,0-.95-.14-1.83-.58-2.63-1.09-1.83-3.5-3.06-8.33-3.72l-10.22-1.24c-7.52-1.02-11.97-3.5-14.17-7.38-1.17-1.97-1.75-4.31-1.75-7.01s.66-5.26,1.9-7.45c3.29-5.62,10.95-8.9,21.76-8.9,14.68,0,23.51,6.21,23.51,17.15v.95h-11.61v-.66c0-5.84-4.52-8.76-12.12-8.76-5.48,0-9.57,1.53-10.95,4.01-.51.88-.81,1.9-.81,3.07,0,.95.14,1.75.66,2.55,1.02,1.83,3.43,3.06,8.32,3.73l10.3,1.24c7.37,1.02,11.9,3.58,14.02,7.38,1.17,2.04,1.75,4.45,1.75,7.16s-.66,5.33-1.9,7.52c-3.21,5.62-10.95,8.83-21.76,8.83m-57.81,0c-14.68,0-23.66-6.35-23.66-17.3v-.95h11.61v.66c0,5.84,4.82,8.91,12.27,8.91,5.55,0,9.49-1.46,10.95-4.02.51-.95.81-1.97.81-3.14,0-.95-.15-1.83-.59-2.63-1.09-1.82-3.5-3.06-8.32-3.72l-10.22-1.24c-7.52-1.02-11.98-3.5-14.17-7.38-1.17-1.97-1.75-4.31-1.75-7.01s.66-5.26,1.9-7.45c3.29-5.62,10.95-8.9,21.76-8.9,14.68,0,23.51,6.21,23.51,17.15v.95h-11.61v-.66c0-5.84-4.53-8.76-12.12-8.76-5.47,0-9.57,1.53-10.95,4.01-.51.88-.8,1.9-.8,3.07,0,.95.14,1.75.66,2.55,1.02,1.83,3.43,3.06,8.33,3.73l10.29,1.24c7.38,1.02,11.9,3.58,14.02,7.38,1.17,2.04,1.75,4.45,1.75,7.16s-.66,5.33-1.9,7.52c-3.21,5.62-10.95,8.83-21.76,8.83m-90.45-1.53l21.54-51.11h17.23l21.55,51.11h-12.49l-6.35-15.84h-22.71l-6.36,15.84h-12.41Zm22.49-24.97h15.26l-6.28-15.7-.66-4.82h-1.32l-.73,4.82-6.28,15.7Zm-68.05,24.97v-51.11h11.54v41.84h27.9v9.28h-39.43Zm-45.75,1.53c-12.64,0-22.93-6.06-26.65-16.43-1.1-3.21-1.68-6.8-1.68-10.37s.58-7.08,1.68-10.08c3.94-10.88,14.97-17.3,30.37-17.3,16.72,0,27.97,7.96,29.21,19.57h-11.83c-1.32-6.36-7.96-10.3-17.38-10.3s-16.43,4.01-18.91,11.03c-.8,2.12-1.17,4.45-1.17,7.08,0,2.48.29,5.11,1.17,7.44,2.48,6.8,9.27,10.59,17.82,10.59,9.79,0,16.21-4.67,17.3-11.54h-18.11v-8.4h29.14v27.16h-10.59l2.34-11.76h-1.32c-2.63,8.11-10,13.29-21.39,13.29m573.08-12.56h13.15v11.03h-13.15v-11.03Zm-39.58,12.56c-15.56,0-26.8-6.42-30.75-17.3-1.09-3-1.6-6.28-1.6-9.79s.51-6.79,1.6-9.78c3.87-10.74,15.05-17.3,30.75-17.3s26.8,6.57,30.67,17.3c1.02,2.99,1.6,6.28,1.6,9.78s-.51,6.79-1.6,9.79c-3.87,10.66-14.97,17.3-30.67,17.3m-20.38-27.09c0,2.41.37,4.6,1.1,6.65,2.49,6.79,9.42,11.18,19.28,11.18s16.64-4.24,19.2-11.18c.73-2.04,1.09-4.24,1.09-6.65s-.37-4.6-1.09-6.65c-2.48-6.79-9.34-11.17-19.2-11.17s-16.79,4.38-19.28,11.17c-.73,2.05-1.1,4.24-1.1,6.65m-49.87,27.09c-14.61,0-25.85-6.35-29.8-17.3-1.09-2.92-1.6-6.28-1.6-9.79s.51-6.86,1.6-9.78c3.94-10.95,15.19-17.3,30.23-17.3,16.51,0,27.97,7.88,29,20h-11.84c-1.38-6.5-7.67-10.73-17.08-10.73s-16.29,4.01-18.84,11.1c-.73,2.04-1.09,4.24-1.09,6.72s.37,4.67,1.09,6.72c2.55,7.01,9.64,11.1,18.62,11.1s14.9-4.16,16.51-10.74h11.83c-1.39,11.83-11.91,20.01-28.62,20.01"/>
  </g>
</svg>