<?xml version="1.0" encoding="UTF-8"?>
<svg id="Layer_1" xmlns="http://www.w3.org/2000/svg" version="1.1" viewBox="0 0 216 216">
  <!-- Generator: Adobe Illustrator 29.1.0, SVG Export Plug-In . SVG Version: 2.1.0 Build 142)  -->
  <path d="M78.39,50.76h-.01c0-.26,0-.13.01,0ZM172.03,133.22c0,26.27-34.13,31.97-34.42,32.02h0s0,0,0,0c0,0-.01,0-.01,0,0,0,0,0,0,0h0c0,.37-.02.73-.02,1.09-.03.05-.03.13-.03.18v.18c-.87,14.48-11.24,26.24-24.58,28.43-.47.05-.97.13-1.45.18-.92.11-1.87.16-2.82.16h-1.26c-14.87,0-27.16-11.9-28.82-27.16-.11-1.03-.17-2.07-.18-3.12-.01.01-.01.06-.03.06-8.71-1.37-27.16-7.59-34.43-9.75l3.47-14.03c7.82,2.32,22.48,6.53,30.82,7.98.05,0,.08.03.13.03v-33.56h-.03c-3.29,0-34.4-4.26-34.4-33.11,0-26.27,34.13-31.97,34.42-32.02,0,0,0,0,0,0h.04c.24-15.16,10.87-27.7,24.67-29.89.45-.08.92-.13,1.37-.18.92-.11,1.84-.16,2.76-.16h1.32c14.87,0,27.19,11.9,28.85,27.16.11,1.03.17,2.07.18,3.12.01-.01.01-.06.03-.06,8.71,1.37,27.16,7.59,34.43,9.75l-3.47,14.03c-7.82-2.32-22.48-6.53-30.82-7.98-.05,0-.08-.03-.13-.03v33.56h.03c3.29,0,34.4,4.26,34.4,33.11ZM78.4,100.1v-33.64h-.03c-9.29,0-16.82,7.53-16.82,16.82s7.53,16.82,16.82,16.82h.03ZM127.07,115.9h-38.14v48.83c0,.82.05,1.63.16,2.42,1.08,10.03,8.87,17.79,18.35,17.79h1.11c10.21,0,18.53-9.05,18.53-20.22v-48.83ZM127.07,51.28c0-1.11-.08-2.21-.26-3.26-.03-.29-.05-.55-.11-.82-1.74-9.21-9.21-16.14-18.16-16.14h-1.11c-10.21,0-18.5,9.05-18.5,20.22v48.83h38.14v-48.83ZM154.44,132.72c0-9.29-7.53-16.82-16.82-16.82h-.03v33.64h.03c9.29,0,16.82-7.53,16.82-16.82ZM137.63,165.24h-.01c0,.13.01.26.01,0ZM159.23,180.27c0,4.02-3.15,7.17-7.25,7.17s-7.3-3.15-7.3-7.17,3.24-7.08,7.3-7.08,7.25,3.15,7.25,7.08ZM146.49,180.27c0,3.15,2.33,5.66,5.53,5.66s5.4-2.5,5.4-5.61-2.29-5.7-5.44-5.7-5.48,2.55-5.48,5.65ZM150.85,183.99h-1.64v-7.08c.65-.13,1.55-.22,2.72-.22,1.34,0,1.94.22,2.46.52.39.3.69.86.69,1.56,0,.78-.6,1.38-1.47,1.64v.09c.69.26,1.08.78,1.29,1.73.22,1.08.34,1.51.52,1.77h-1.77c-.21-.26-.34-.91-.56-1.73-.13-.78-.56-1.12-1.47-1.12h-.78v2.85ZM150.9,179.97h.78c.91,0,1.64-.3,1.64-1.03,0-.65-.47-1.08-1.51-1.08-.43,0-.73.04-.91.08v2.03Z"/>
</svg>