<?xml version="1.0" encoding="UTF-8"?>
<svg id="Layer_1" xmlns="http://www.w3.org/2000/svg" xmlns:xlink="http://www.w3.org/1999/xlink" version="1.1" viewBox="0 0 216 216">
  <!-- Generator: Adobe Illustrator 29.1.0, SVG Export Plug-In . SVG Version: 2.1.0 Build 142)  -->
  <defs>
    <style>
      .st0 {
        fill: #231f20;
      }

      .st1 {
        clip-path: url(#clippath);
      }
    </style>
    <clipPath id="clippath">
      <path class="st0" d="M209.37,116.67c.61-.29.24-1.2-.39-1l-.05-.02c-4.98,1.63-11.79,3.37-17.57,1.67-5.48-1.88-1.52-18.99.94-22.66.7-1.03,1-2.35,1.35-3.55.11-.36-.05-.94-.3-1.22-1.41-1.52-2.75-3.16-4.39-4.42-.9-.68-2.42-1.09-3.49-.93-10.81,1.58-19.73,13.79-24.97,26.2-.58,1.37-4.47.65-5.38,1.14,5.07-2.9,14.91-27.11,16.87-35.66.78-3.37,1.2-3.49,1.25-6.9.05-3.17-5.91-5.59-8.75-4.19-1.67.82-12.38,10.24-18.79,42.95-1.46,3.05-6.26,6.11-6.71,2.81.3-2.49.61-4.94,1.35-7.26,1.56-4.89,3.05-9.83,5.21-14.49.8-1.75.29-2.35-.43-3.25-.82-1.02-1.85-1.58-3.34-.73-4.59,2.63-6.49,7.15-8.58,11.53-1.11,2.32-2.28,7.27-3.8,9.28-1.63,2.16-4.48,6.58-5.44,4.83-1.94-2.13,11.15-35.84,12.86-40.87.71-2.11-.3-3.37-1.49-4.51-1.08-1.03-2.32-1.02-3.93-.49-3.04,1-4.62,2.6-6.14,4.98-1.17,1.82-.49,3.74-1.22,5.77-.96,2.67-12.85,30.13-13.2,36.35-1.2.32-2.54,1.85-4.02,2.29-1.56.46-1.9-.65-1.56-2.29.44-2.23.82-4.47,1.4-6.68,1.37-5.19,2.52-7.06,4.18-12.18.55-1.7.21-2.79-.65-3.86-.9-1.09-5.27-3.42-5.95-3.74-2.64-1.25-16.9,1.78-26.49,29.74-5.86,2.54-4.83.24-4.98.2,1.53-4.4,9.78-22.98,10.89-25.9.33-.88.49-2,.21-2.82-.38-1.12-1.17-2.05-2.72-1.88-2.66.3-6.79,3.52-7.67,6-.41,1.15-7.03,7.12-8.9,8.76.59-2.07,9.9-19.35,14.57-28.89,3.36-6.87-.56-6.61-1.78-6.3-3.81.93-7.28,1.76-9.92,7.11-.97,1.96-19.47,37-21.64,41.24-3.14-4.98-6.79-10.53-9.89-15.46,8.98-4.37,19.24-13.46,24.04-20.19.41-.58,2.83-4.71,1.28-5.1-1.55-.39-5.1-1.38-9.17,4.24-1.25,1.72-9.75,11.35-19.59,14.55,2.13-5.22,14.76-23.91,11.45-25.79-2.17-1.23-6.12.03-7.17.39-4.3,1.49-9.75,12.55-18.29,31.35-.55,1.2-3.3,1.7-3.99,1.46-.64-.21-6.23,2.67-.36,3.04.33.02,1.94-.18,2.34.02-.96,2.61-8.4,18.7-9.9,24.71-.47,1.87-.27,2.96,1.18,3.9,2.11,1.37,5.21,1.08,6.27-.59,1.08-1.69,2.13-3.37,3.07-5.12,3.25-5.97,6.29-13.62,9.55-19.58.17-.3,12.14,22.08,24.15,36.54,6.87,8.26,17.54,3.86,21.64,1.75.38-.2.23-.77-.2-.77-4.63.11-8.38-1.32-10.68-4.13-2.52-3.08-4.62-6.55-6.8-9.9-1.58-2.45-2.98-5-4.5-7.56.41-.29.64-.41.82-.56,2.04-1.59,4.63-1.96,6.08-4.98,1.4-2.93,8.76-10.95,11.09-13.44-.33,2.76-5.22,11.19-5.19,13.84.09,14.41,15.13,2.08,15.7,1.72.44,1.75,2.29,5,8,3.13,2.99-.97,5.94-1.75,7.9-4.59.09-.14.29-.18.52-.32v.77c-.24,4.43,3.89,5.16,7.72,3.61,1.41-.58,6.94-3.43,8.1-6.23-1.31,10.8,14.34,2.48,15.63.44.43-.67,1.05-1.2,1.87-2.13-.18,1.56-.32,2.73-.44,3.9-.26,2.32,1.03,4.07,3.33,4.06,7.31-.06,13.11-6.52,13.27-6.38-2.54,7.64-8.35,28.83-8.44,35.42-.03,1.96,1.38,3.31,3.27,2.63,15.28-5.56,17.19-22.18,17.78-34.1.06-1.08.12-2.16.18-3.25.18.55,2.89-.71,2.93-.2.97,12.8,17.21,2.6,18.24,1.56.11-.11.3-.15.59-.29,0,1.79-.33,2.22.17,3.81,2.48,7.81,20.79,2.05,30.03-2.34ZM168.03,74.7c2.1,1-11.18,29.15-11.95,29.72.87-5.38,9.58-30.86,11.95-29.72ZM90.6,112.11c-.05-3.78,4.66-13.18,8.17-16.27.85,5.16-2.23,11.3-8.17,16.27ZM149.5,136.49c-4.27,6.59-.05-7.82,1.11-12.12.21.05,2.54-8.61,2.76-8.58.77,6.59-.96,14.29-3.87,20.7ZM172.58,110.36c-.05-3.78,4.66-13.18,8.17-16.27.85,5.16-2.23,11.3-8.17,16.27ZM146.52,65.44c2.28-.85,4.28-.35,5.77,1.38.17.2.14.59.05.88-1.41,5-2.43,5.8-3.77,10.81-.78,2.89-1.56,3.39-4.71,2.69l.02-.02c-5.27-1.67-.44-14.6,2.64-15.75ZM128.15,138.71c-2.64,0-4.26-1.14-4.26-3.12v-.17s2.09,0,2.09,0v.12c0,1.05.87,1.6,2.21,1.6,1,0,1.71-.26,1.97-.72.09-.17.14-.36.14-.57,0-.17-.03-.33-.11-.47-.2-.33-.63-.55-1.5-.67l-1.84-.22c-1.35-.18-2.16-.63-2.55-1.33-.21-.36-.32-.78-.32-1.26s.12-.95.34-1.34c.59-1.01,1.97-1.6,3.92-1.6,2.64,0,4.24,1.12,4.24,3.09v.17s-2.09,0-2.09,0v-.12c0-1.05-.82-1.58-2.18-1.58-.99,0-1.72.28-1.97.72-.09.16-.14.34-.14.55,0,.17.03.32.12.46.18.33.62.55,1.5.67l1.85.22c1.33.18,2.14.64,2.53,1.33.21.37.32.8.32,1.29s-.12.96-.34,1.35c-.58,1.01-1.97,1.59-3.92,1.59ZM117.73,138.71c-2.64,0-4.26-1.14-4.26-3.12v-.17s2.09,0,2.09,0v.12c0,1.05.87,1.6,2.21,1.6,1,0,1.71-.26,1.97-.72.09-.17.14-.36.14-.57,0-.17-.03-.33-.11-.47-.2-.33-.63-.55-1.5-.67l-1.84-.22c-1.35-.18-2.16-.63-2.55-1.33-.21-.36-.32-.78-.32-1.26s.12-.95.34-1.34c.59-1.01,1.97-1.6,3.92-1.6,2.64,0,4.24,1.12,4.24,3.09v.17s-2.09,0-2.09,0v-.12c0-1.05-.82-1.58-2.18-1.58-.99,0-1.72.28-1.97.72-.09.16-.14.34-.14.55,0,.17.03.32.12.46.18.33.62.55,1.5.67l1.85.22c1.33.18,2.14.64,2.53,1.33.21.37.32.8.32,1.29s-.12.96-.34,1.35c-.58,1.01-1.97,1.59-3.92,1.59ZM101.44,138.44l3.88-9.21h3.1s3.88,9.21,3.88,9.21h-2.25s-1.14-2.85-1.14-2.85h-4.09s-1.14,2.85-1.14,2.85h-2.24ZM105.49,133.94h2.75s-1.13-2.83-1.13-2.83l-.12-.87h-.24s-.13.87-.13.87l-1.13,2.83ZM93.23,138.44v-9.21s2.08,0,2.08,0v7.54h5.02s0,1.67,0,1.67h-7.1ZM84.99,138.71c-2.28,0-4.13-1.09-4.8-2.96-.2-.58-.3-1.22-.3-1.87s.11-1.28.3-1.82c.71-1.96,2.7-3.12,5.47-3.12,3.01,0,5.04,1.43,5.26,3.52h-2.13c-.24-1.14-1.43-1.85-3.13-1.85s-2.96.72-3.41,1.99c-.14.38-.21.8-.21,1.28,0,.45.05.92.21,1.34.45,1.22,1.67,1.91,3.21,1.91,1.76,0,2.92-.84,3.12-2.08h-3.26s0-1.51,0-1.51h5.25s0,4.89,0,4.89h-1.91s.42-2.12.42-2.12h-.24c-.47,1.46-1.8,2.39-3.85,2.39ZM188.22,138.44v-1.99s2.37,0,2.37,0v1.99s-2.37,0-2.37,0ZM181.09,138.71c-2.8,0-4.83-1.16-5.54-3.12-.2-.54-.29-1.13-.29-1.76s.09-1.22.29-1.76c.7-1.93,2.71-3.12,5.54-3.12s4.83,1.18,5.52,3.12c.18.54.29,1.13.29,1.76s-.09,1.22-.29,1.76c-.7,1.92-2.7,3.12-5.52,3.12ZM177.42,133.83c0,.43.07.83.2,1.2.45,1.22,1.7,2.01,3.47,2.01s3-.76,3.46-2.01c.13-.37.2-.76.2-1.2s-.07-.83-.2-1.2c-.45-1.22-1.68-2.01-3.46-2.01s-3.03.79-3.47,2.01c-.13.37-.2.76-.2,1.2ZM168.44,138.71c-2.63,0-4.66-1.14-5.37-3.12-.2-.53-.29-1.13-.29-1.76s.09-1.24.29-1.76c.71-1.97,2.74-3.12,5.44-3.12,2.97,0,5.04,1.42,5.22,3.6h-2.13c-.25-1.17-1.38-1.93-3.08-1.93s-2.93.72-3.39,2c-.13.37-.2.76-.2,1.21s.07.84.2,1.21c.46,1.26,1.74,2,3.35,2s2.68-.75,2.97-1.93h2.13c-.25,2.13-2.14,3.6-5.16,3.6Z"/>
    </clipPath>
  </defs>
  <path class="st0" d="M209.37,116.67c.61-.29.24-1.2-.39-1l-.05-.02c-4.98,1.63-11.79,3.37-17.57,1.67-5.48-1.88-1.52-18.99.94-22.66.7-1.03,1-2.35,1.35-3.55.11-.36-.05-.94-.3-1.22-1.41-1.52-2.75-3.16-4.39-4.42-.9-.68-2.42-1.09-3.49-.93-10.81,1.58-19.73,13.79-24.97,26.2-.58,1.37-4.47.65-5.38,1.14,5.07-2.9,14.91-27.11,16.87-35.66.78-3.37,1.2-3.49,1.25-6.9.05-3.17-5.91-5.59-8.75-4.19-1.67.82-12.38,10.24-18.79,42.95-1.46,3.05-6.26,6.11-6.71,2.81.3-2.49.61-4.94,1.35-7.26,1.56-4.89,3.05-9.83,5.21-14.49.8-1.75.29-2.35-.43-3.25-.82-1.02-1.85-1.58-3.34-.73-4.59,2.63-6.49,7.15-8.58,11.53-1.11,2.32-2.28,7.27-3.8,9.28-1.63,2.16-4.48,6.58-5.44,4.83-1.94-2.13,11.15-35.84,12.86-40.87.71-2.11-.3-3.37-1.49-4.51-1.08-1.03-2.32-1.02-3.93-.49-3.04,1-4.62,2.6-6.14,4.98-1.17,1.82-.49,3.74-1.22,5.77-.96,2.67-12.85,30.13-13.2,36.35-1.2.32-2.54,1.85-4.02,2.29-1.56.46-1.9-.65-1.56-2.29.44-2.23.82-4.47,1.4-6.68,1.37-5.19,2.52-7.06,4.18-12.18.55-1.7.21-2.79-.65-3.86-.9-1.09-5.27-3.42-5.95-3.74-2.64-1.25-16.9,1.78-26.49,29.74-5.86,2.54-4.83.24-4.98.2,1.53-4.4,9.78-22.98,10.89-25.9.33-.88.49-2,.21-2.82-.38-1.12-1.17-2.05-2.72-1.88-2.66.3-6.79,3.52-7.67,6-.41,1.15-7.03,7.12-8.9,8.76.59-2.07,9.9-19.35,14.57-28.89,3.36-6.87-.56-6.61-1.78-6.3-3.81.93-7.28,1.76-9.92,7.11-.97,1.96-19.47,37-21.64,41.24-3.14-4.98-6.79-10.53-9.89-15.46,8.98-4.37,19.24-13.46,24.04-20.19.41-.58,2.83-4.71,1.28-5.1-1.55-.39-5.1-1.38-9.17,4.24-1.25,1.72-9.75,11.35-19.59,14.55,2.13-5.22,14.76-23.91,11.45-25.79-2.17-1.23-6.12.03-7.17.39-4.3,1.49-9.75,12.55-18.29,31.35-.55,1.2-3.3,1.7-3.99,1.46-.64-.21-6.23,2.67-.36,3.04.33.02,1.94-.18,2.34.02-.96,2.61-8.4,18.7-9.9,24.71-.47,1.87-.27,2.96,1.18,3.9,2.11,1.37,5.21,1.08,6.27-.59,1.08-1.69,2.13-3.37,3.07-5.12,3.25-5.97,6.29-13.62,9.55-19.58.17-.3,12.14,22.08,24.15,36.54,6.87,8.26,17.54,3.86,21.64,1.75.38-.2.23-.77-.2-.77-4.63.11-8.38-1.32-10.68-4.13-2.52-3.08-4.62-6.55-6.8-9.9-1.58-2.45-2.98-5-4.5-7.56.41-.29.64-.41.82-.56,2.04-1.59,4.63-1.96,6.08-4.98,1.4-2.93,8.76-10.95,11.09-13.44-.33,2.76-5.22,11.19-5.19,13.84.09,14.41,15.13,2.08,15.7,1.72.44,1.75,2.29,5,8,3.13,2.99-.97,5.94-1.75,7.9-4.59.09-.14.29-.18.52-.32v.77c-.24,4.43,3.89,5.16,7.72,3.61,1.41-.58,6.94-3.43,8.1-6.23-1.31,10.8,14.34,2.48,15.63.44.43-.67,1.05-1.2,1.87-2.13-.18,1.56-.32,2.73-.44,3.9-.26,2.32,1.03,4.07,3.33,4.06,7.31-.06,13.11-6.52,13.27-6.38-2.54,7.64-8.35,28.83-8.44,35.42-.03,1.96,1.38,3.31,3.27,2.63,15.28-5.56,17.19-22.18,17.78-34.1.06-1.08.12-2.16.18-3.25.18.55,2.89-.71,2.93-.2.97,12.8,17.21,2.6,18.24,1.56.11-.11.3-.15.59-.29,0,1.79-.33,2.22.17,3.81,2.48,7.81,20.79,2.05,30.03-2.34ZM168.03,74.7c2.1,1-11.18,29.15-11.95,29.72.87-5.38,9.58-30.86,11.95-29.72ZM90.6,112.11c-.05-3.78,4.66-13.18,8.17-16.27.85,5.16-2.23,11.3-8.17,16.27ZM149.5,136.49c-4.27,6.59-.05-7.82,1.11-12.12.21.05,2.54-8.61,2.76-8.58.77,6.59-.96,14.29-3.87,20.7ZM172.58,110.36c-.05-3.78,4.66-13.18,8.17-16.27.85,5.16-2.23,11.3-8.17,16.27ZM146.52,65.44c2.28-.85,4.28-.35,5.77,1.38.17.2.14.59.05.88-1.41,5-2.43,5.8-3.77,10.81-.78,2.89-1.56,3.39-4.71,2.69l.02-.02c-5.27-1.67-.44-14.6,2.64-15.75ZM128.15,138.71c-2.64,0-4.26-1.14-4.26-3.12v-.17s2.09,0,2.09,0v.12c0,1.05.87,1.6,2.21,1.6,1,0,1.71-.26,1.97-.72.09-.17.14-.36.14-.57,0-.17-.03-.33-.11-.47-.2-.33-.63-.55-1.5-.67l-1.84-.22c-1.35-.18-2.16-.63-2.55-1.33-.21-.36-.32-.78-.32-1.26s.12-.95.34-1.34c.59-1.01,1.97-1.6,3.92-1.6,2.64,0,4.24,1.12,4.24,3.09v.17s-2.09,0-2.09,0v-.12c0-1.05-.82-1.58-2.18-1.58-.99,0-1.72.28-1.97.72-.09.16-.14.34-.14.55,0,.17.03.32.12.46.18.33.62.55,1.5.67l1.85.22c1.33.18,2.14.64,2.53,1.33.21.37.32.8.32,1.29s-.12.96-.34,1.35c-.58,1.01-1.97,1.59-3.92,1.59ZM117.73,138.71c-2.64,0-4.26-1.14-4.26-3.12v-.17s2.09,0,2.09,0v.12c0,1.05.87,1.6,2.21,1.6,1,0,1.71-.26,1.97-.72.09-.17.14-.36.14-.57,0-.17-.03-.33-.11-.47-.2-.33-.63-.55-1.5-.67l-1.84-.22c-1.35-.18-2.16-.63-2.55-1.33-.21-.36-.32-.78-.32-1.26s.12-.95.34-1.34c.59-1.01,1.97-1.6,3.92-1.6,2.64,0,4.24,1.12,4.24,3.09v.17s-2.09,0-2.09,0v-.12c0-1.05-.82-1.58-2.18-1.58-.99,0-1.72.28-1.97.72-.09.16-.14.34-.14.55,0,.17.03.32.12.46.18.33.62.55,1.5.67l1.85.22c1.33.18,2.14.64,2.53,1.33.21.37.32.8.32,1.29s-.12.96-.34,1.35c-.58,1.01-1.97,1.59-3.92,1.59ZM101.44,138.44l3.88-9.21h3.1s3.88,9.21,3.88,9.21h-2.25s-1.14-2.85-1.14-2.85h-4.09s-1.14,2.85-1.14,2.85h-2.24ZM105.49,133.94h2.75s-1.13-2.83-1.13-2.83l-.12-.87h-.24s-.13.87-.13.87l-1.13,2.83ZM93.23,138.44v-9.21s2.08,0,2.08,0v7.54h5.02s0,1.67,0,1.67h-7.1ZM84.99,138.71c-2.28,0-4.13-1.09-4.8-2.96-.2-.58-.3-1.22-.3-1.87s.11-1.28.3-1.82c.71-1.96,2.7-3.12,5.47-3.12,3.01,0,5.04,1.43,5.26,3.52h-2.13c-.24-1.14-1.43-1.85-3.13-1.85s-2.96.72-3.41,1.99c-.14.38-.21.8-.21,1.28,0,.45.05.92.21,1.34.45,1.22,1.67,1.91,3.21,1.91,1.76,0,2.92-.84,3.12-2.08h-3.26s0-1.51,0-1.51h5.25s0,4.89,0,4.89h-1.91s.42-2.12.42-2.12h-.24c-.47,1.46-1.8,2.39-3.85,2.39ZM188.22,138.44v-1.99s2.37,0,2.37,0v1.99s-2.37,0-2.37,0ZM181.09,138.71c-2.8,0-4.83-1.16-5.54-3.12-.2-.54-.29-1.13-.29-1.76s.09-1.22.29-1.76c.7-1.93,2.71-3.12,5.54-3.12s4.83,1.18,5.52,3.12c.18.54.29,1.13.29,1.76s-.09,1.22-.29,1.76c-.7,1.92-2.7,3.12-5.52,3.12ZM177.42,133.83c0,.43.07.83.2,1.2.45,1.22,1.7,2.01,3.47,2.01s3-.76,3.46-2.01c.13-.37.2-.76.2-1.2s-.07-.83-.2-1.2c-.45-1.22-1.68-2.01-3.46-2.01s-3.03.79-3.47,2.01c-.13.37-.2.76-.2,1.2ZM168.44,138.71c-2.63,0-4.66-1.14-5.37-3.12-.2-.53-.29-1.13-.29-1.76s.09-1.24.29-1.76c.71-1.97,2.74-3.12,5.44-3.12,2.97,0,5.04,1.42,5.22,3.6h-2.13c-.25-1.17-1.38-1.93-3.08-1.93s-2.93.72-3.39,2c-.13.37-.2.76-.2,1.21s.07.84.2,1.21c.46,1.26,1.74,2,3.35,2s2.68-.75,2.97-1.93h2.13c-.25,2.13-2.14,3.6-5.16,3.6Z"/>
  <g class="st1">
    <path class="st0" d="M138.61,165.78c-10.16-.04-11.86-7.99-19.4-11.6-2.98-1.3-7.92-.87-12.34-.99-5.98.04-12.39-.14-18.26.16-7.33.44-13.22,5-20.67,6.32-15.74,3.27-26.26-4.53-34.81-17.19-5.97-8.8-8.43-3.11-15.1.46-6.41,3.19-14.8,2.1-20.19-2.65-4.84-4.03-6.59-10.76-5.51-16.79.62-4.23,2.45-8.13,3.41-12.3,1.84-7.55.44-16.15,6.27-21.85,1.43-1.65,3-3.13,4.41-4.76,2.7-2.97,4.78-7.42,6.74-11.3,4.95-9.1,9.64-19.5,20.69-22.21,4.08-1,8.59-1.16,12.65.07,4.31,1.3,7.94,4.44,12.54,4.03,6.38-.71,12.01-5.58,18.68-5.04,7.23-.05,14.18,4.98,15.68,12.14.52,2.13.85,4.89,1.96,6.54,1.98,3.56,11.65,2.91,14.13.24,1.95-1.88,2.72-4.22,4.16-6.78,3.05-5.63,8.96-9.73,15.18-11.28,4.68-1.11,9.47-.47,14.19-.43,6.32.12,12.59.57,18.84.13,7.36-.9,15.42.66,20.56,6.39,2.99,3.07,4.14,7.38,6.79,10.64,2.96,3.73,7.5,5.21,11.3,8.65,1.49,1.34,2.84,2.85,3.97,4.51,2.39,3.49,3.63,7.76,3.19,11.98-.08,2.5-1.12,5.41.48,7.21,1.55,1.59,4.31,1.97,6.38,2.85,4.63,1.75,8.29,6.17,9.03,11.21,1.01,5.89-2.17,11.83-7.15,14.92-6.16,3.46-10.41,4.91-10.89,12.69-.41,3.33.6,8.19-2.25,10.32-1.72,1.07-4.33,1.05-6.57,1.09-2.98.01-6.07.03-9.04.06-5.24.04-9.16,0-14.04,0-3.39-.07-6.87-.22-10.12.84-4.59,1.37-7.42,4.85-11.91,7.58-3.84,2.34-8.27,4.11-12.8,4.12h-.19Z"/>
  </g>
</svg>